<?xml version="1.0" encoding="utf-8"?>
<!-- Svg Vector Icons : http://www.onlinewebfonts.com/icon -->
<!DOCTYPE svg PUBLIC "-//W3C//DTD SVG 1.1//EN" "http://www.w3.org/Graphics/SVG/1.1/DTD/svg11.dtd">
<svg version="1.1" xmlns="http://www.w3.org/2000/svg" xmlns:xlink="http://www.w3.org/1999/xlink" x="0px" y="0px" viewBox="0 0 1000 1000" enable-background="new 0 0 1000 1000" xml:space="preserve">
<metadata> Svg Vector Icons : http://www.onlinewebfonts.com/icon </metadata>
<g><path d="M863,890.6H527.7V500h339.8v408.3L863,890.6L863,890.6L863,890.6z M133.7,500h335.3v390.6H133.7V500L133.7,500L133.7,500L133.7,500z M71.8,321h397.2v120.4H71.8V321L71.8,321L71.8,321L71.8,321z M924.9,441.4H527.7V321h397.2L924.9,441.4L924.9,441.4L924.9,441.4L924.9,441.4z M247.7,109.4c74.9,0,156.3,87.9,198.6,149.7H342.1c-71.6,0-149.7-35.8-149.7-104.2C192.4,122.5,208.6,109.4,247.7,109.4L247.7,109.4L247.7,109.4L247.7,109.4z M749.1,109.4c39,0,55.3,16.3,55.3,48.8c0,65.1-74.9,104.2-146.5,104.2H553.7C596.1,197.3,674.2,109.4,749.1,109.4L749.1,109.4L749.1,109.4L749.1,109.4z M986.8,321c0-32.6-26.1-58.6-61.9-58.6H820.7c26-26.1,45.5-61.9,45.5-104.2c0-52-29.3-107.4-117.2-107.4c-110.7,0-205.2,117.2-250.7,182.3C452.8,168,358.4,50.8,244.4,50.8c-84.7,0-117.2,55.3-117.2,107.4c0,42.3,16.3,78.1,45.6,104.2H71.8c-32.5,0-61.8,26-61.8,58.6v179h61.8v390.6c0,32.6,26.1,58.6,61.9,58.6h732.5c32.6,0,61.9-26,61.9-58.6V500H990L986.8,321L986.8,321L986.8,321L986.8,321z"/></g>
</svg>